<svg xmlns="http://www.w3.org/2000/svg" xmlns:xlink="http://www.w3.org/1999/xlink" viewBox="0 0 57.55 28.35">
    <defs>
        <style>.cls-1,.cls-2,.cls-3,.cls-4{fill:none;}.cls-1,.cls-2,.cls-3{stroke-linejoin:round;}.cls-1{stroke:url(#Namnlös_övertoning_41);}.cls-2{stroke:url(#Namnlös_övertoning_41-2);}.cls-3{stroke:url(#Namnlös_övertoning_41-3);}</style>
        <linearGradient id="Namnlös_övertoning_41" x1="-93.01" y1="24.25" x2="-71.64" y2="24.25" gradientTransform="translate(93.37 -10.08)" gradientUnits="userSpaceOnUse">
            <stop offset="0" stop-color="#e6cc28"/>
            <stop offset="0.24" stop-color="#efb62c"/>
            <stop offset="0.5" stop-color="#f6a32f"/>
            <stop offset="0.57" stop-color="#f38b43"/>
            <stop offset="0.7" stop-color="#ee6762"/>
            <stop offset="0.81" stop-color="#ea4d79"/>
            <stop offset="0.92" stop-color="#e83e86"/>
            <stop offset="1" stop-color="#e7388b"/>
        </linearGradient>
        <linearGradient id="Namnlös_övertoning_41-2" x1="-75.34" y1="24.25" x2="-53.96" y2="24.25" xlink:href="#Namnlös_övertoning_41"/>
        <linearGradient id="Namnlös_övertoning_41-3" x1="-57.66" y1="24.25" x2="-36.28" y2="24.25" xlink:href="#Namnlös_övertoning_41"/>
    </defs>
    <title>Resurs 8</title>
    <g id="Lager_2" data-name="Lager 2">
        <g id="Lager_1-2" data-name="Lager 1">
            <path class="cls-1" d="M12,14.14l8.9-11c.64-.78,0-1.86-1.13-1.86H12a1.48,1.48,0,0,0-1.14.5L.86,14.14,10.92,26.51a1.44,1.44,0,0,0,1.13.51h7.8C21,27,21.62,25.94,21,25.15Z"/>
            <path class="cls-2" d="M29.71,14.14l8.9-11c.64-.78,0-1.86-1.13-1.86H29.67a1.48,1.48,0,0,0-1.13.5l-10,12.31L28.59,26.51a1.47,1.47,0,0,0,1.14.51h7.8c1.11,0,1.77-1.08,1.13-1.87Z"/>
            <path class="cls-3" d="M47.38,14.14l8.91-11c.64-.78,0-1.86-1.14-1.86h-7.8a1.48,1.48,0,0,0-1.13.5l-10,12.31L46.27,26.51a1.46,1.46,0,0,0,1.14.51h7.8c1.11,0,1.77-1.08,1.13-1.87Z"/>
            <rect class="cls-4" y="0.34" width="57.55" height="27.66" transform="translate(57.55 28.35) rotate(180)"/>
            <rect class="cls-4" x="0.43" width="56.69" height="28.35" transform="translate(57.55 28.35) rotate(180)"/>
        </g>
    </g>
</svg>