<svg xmlns="http://www.w3.org/2000/svg" xmlns:xlink="http://www.w3.org/1999/xlink" viewBox="0 0 100 50">
    <defs>
        <style>.cls-1,.cls-2,.cls-3,.cls-4{fill:none;}.cls-1,.cls-2,.cls-3{stroke-linejoin:round;stroke-width:2.8px;}.cls-1{stroke:url(#Namnlös_övertoning_41);}.cls-2{stroke:url(#Namnlös_övertoning_41-2);}.cls-3{stroke:url(#Namnlös_övertoning_41-3);}</style>
        <linearGradient id="Namnlös_övertoning_41" x1="-109.64" y1="194.25" x2="-71.75" y2="194.25" gradientTransform="translate(110.16 -169.25)" gradientUnits="userSpaceOnUse">
            <stop offset="0" stop-color="#e6cc28"/>
            <stop offset="0.24" stop-color="#efb62c"/>
            <stop offset="0.5" stop-color="#f6a32f"/>
            <stop offset="0.57" stop-color="#f38b43"/>
            <stop offset="0.7" stop-color="#ee6762"/>
            <stop offset="0.81" stop-color="#ea4d79"/>
            <stop offset="0.92" stop-color="#e83e86"/>
            <stop offset="1" stop-color="#e7388b"/>
        </linearGradient>
        <linearGradient id="Namnlös_övertoning_41-2" x1="-79.19" y1="194.25" x2="-41.3" y2="194.25" xlink:href="#Namnlös_övertoning_41"/>
        <linearGradient id="Namnlös_övertoning_41-3" x1="-48.74" y1="194.25" x2="-10.84" y2="194.25" xlink:href="#Namnlös_övertoning_41"/>
    </defs>
    <title>Resurs 10</title>
    <g id="Lager_2" data-name="Lager 2">
        <g id="Lager_1-2" data-name="Lager 1">
            <path class="cls-1" d="M21.15,24.94,36.49,6.08c1.1-1.35,0-3.21-2-3.21H21.1a2.5,2.5,0,0,0-2,.88L1.91,24.94,19.24,46.25a2.5,2.5,0,0,0,2,.88H34.63c1.92,0,3-1.86,1.95-3.21Z"/>
            <path class="cls-2" d="M51.6,24.94,66.94,6.08c1.1-1.35,0-3.21-2-3.21H51.55a2.5,2.5,0,0,0-1.95.88L32.36,24.94,49.69,46.25a2.5,2.5,0,0,0,2,.88H65.08c1.92,0,3-1.86,2-3.21Z"/>
            <path class="cls-3" d="M82.06,24.94,97.39,6.08c1.1-1.35,0-3.21-2-3.21H82a2.51,2.51,0,0,0-2,.88L62.82,24.94,80.14,46.25a2.51,2.51,0,0,0,2,.88H95.53c1.92,0,3-1.86,2-3.21Z"/>
            <rect class="cls-4" width="100" height="50"/>
        </g>
    </g>
</svg>