<svg xmlns="http://www.w3.org/2000/svg" xmlns:xlink="http://www.w3.org/1999/xlink" viewBox="0 0 57.55 28.35"><defs><style>.cls-1,.cls-2,.cls-3,.cls-4{fill:none;}.cls-1,.cls-2,.cls-3{stroke-linejoin:round;}.cls-1{stroke:url(#Namnlös_övertoning_41);}.cls-2{stroke:url(#Namnlös_övertoning_41-2);}.cls-3{stroke:url(#Namnlös_övertoning_41-3);}</style><linearGradient id="Namnlös_övertoning_41" x1="-82.73" y1="114.23" x2="-61.35" y2="114.23" gradientTransform="translate(-25.54 128.41) rotate(180)" gradientUnits="userSpaceOnUse"><stop offset="0" stop-color="#e6cc28"/><stop offset="0.24" stop-color="#efb62c"/><stop offset="0.5" stop-color="#f6a32f"/><stop offset="0.57" stop-color="#f38b43"/><stop offset="0.7" stop-color="#ee6762"/><stop offset="0.81" stop-color="#ea4d79"/><stop offset="0.92" stop-color="#e83e86"/><stop offset="1" stop-color="#e7388b"/></linearGradient><linearGradient id="Namnlös_övertoning_41-2" x1="-65.05" y1="114.23" x2="-43.67" y2="114.23" xlink:href="#Namnlös_övertoning_41"/><linearGradient id="Namnlös_övertoning_41-3" x1="-47.37" y1="114.23" x2="-25.99" y2="114.23" xlink:href="#Namnlös_övertoning_41"/></defs><title>Resurs 7</title><g id="Lager_2" data-name="Lager 2"><g id="Lager_1-2" data-name="Lager 1"><path class="cls-1" d="M45.52,14.21l-8.9,10.94c-.64.79,0,1.87,1.13,1.87h7.8a1.44,1.44,0,0,0,1.13-.51l10-12.3L46.63,1.83a1.48,1.48,0,0,0-1.13-.5H37.7c-1.12,0-1.77,1.08-1.13,1.86Z"/><path class="cls-2" d="M27.84,14.21l-8.9,10.94c-.64.79,0,1.87,1.13,1.87h7.8A1.47,1.47,0,0,0,29,26.51l10-12.3L29,1.83a1.46,1.46,0,0,0-1.13-.5H20c-1.12,0-1.77,1.08-1.13,1.86Z"/><path class="cls-3" d="M10.16,14.21,1.26,25.15c-.64.79,0,1.87,1.13,1.87H10.2a1.45,1.45,0,0,0,1.13-.51l10-12.3-10-12.38a1.5,1.5,0,0,0-1.14-.5H2.34C1.23,1.33.57,2.41,1.21,3.19Z"/><rect class="cls-4" y="0.34" width="57.55" height="27.66"/><rect class="cls-4" x="0.43" width="56.69" height="28.35"/></g></g></svg>