<svg xmlns="http://www.w3.org/2000/svg" xmlns:xlink="http://www.w3.org/1999/xlink" viewBox="0 0 60.96 193.7"><defs><style>.cls-1{fill:url(#Namnlös_övertoning_33);}</style><linearGradient id="Namnlös_övertoning_33" x1="3.55" y1="170.56" x2="54.51" y2="9.62" gradientUnits="userSpaceOnUse"><stop offset="0" stop-color="#c50475"/><stop offset="1" stop-color="#82318a"/></linearGradient></defs><title>aboutResurs 2</title><g id="Lager_2" data-name="Lager 2"><g id="Lager_1-2" data-name="Lager 1"><path class="cls-1" d="M13.75,0V15.76a25.53,25.53,0,0,0,1.59,9,22.35,22.35,0,0,0,4.6,7.52,21.94,21.94,0,0,0,7.23,5.12,23.06,23.06,0,0,0,9.53,1.88,27.42,27.42,0,0,0,8.66-1.42,22.77,22.77,0,0,0,7.82-4.45,21.63,21.63,0,0,0,5.64-8,30.28,30.28,0,0,0,2.14-12V0Zm40,15.5A17.91,17.91,0,0,1,52.79,21a15.56,15.56,0,0,1-2.89,5.16A14.61,14.61,0,0,1,44.78,30a17.76,17.76,0,0,1-7.56,1.46,18,18,0,0,1-7-1.26,14,14,0,0,1-5.06-3.54,15.38,15.38,0,0,1-3.11-5.41,21.64,21.64,0,0,1-1.07-7V7.59H53.7ZM35.15,47.66a13.78,13.78,0,0,0-7.46-2.07A15.54,15.54,0,0,0,20.1,47.4a12.89,12.89,0,0,0-5.18,5.29A16.89,16.89,0,0,0,13,60.89a16.45,16.45,0,0,0,.82,5A19.61,19.61,0,0,0,16,70.55l5.38-3.3a12.63,12.63,0,0,1-1.56-2.92,9.15,9.15,0,0,1-.58-3.24,8.52,8.52,0,0,1,1.07-4.28,7.67,7.67,0,0,1,2.46-2.61L29.9,75.29a16.47,16.47,0,0,0,9.24-4.9,13.44,13.44,0,0,0,3.27-9.3,15.73,15.73,0,0,0-2-7.82A15.47,15.47,0,0,0,35.15,47.66ZM35.25,65a8.59,8.59,0,0,1-3.13,2.19L27,52.78c.39,0,.78-.06,1.18-.06a9.33,9.33,0,0,1,4.45,1,7.77,7.77,0,0,1,3,2.75,7.35,7.35,0,0,1,1.1,4A6.47,6.47,0,0,1,35.25,65ZM21.59,83.07l-4.15-3a12.18,12.18,0,0,0-3.17,4.7,16.07,16.07,0,0,0-1.11,5.94,13,13,0,0,0,1.33,6.25A9.2,9.2,0,0,0,18,100.58a9.1,9.1,0,0,0,4.61,1.23,6.84,6.84,0,0,0,3.63-.91,7.51,7.51,0,0,0,2.46-2.43,15.12,15.12,0,0,0,1.62-3.53c.35-1,.67-1.94,1-3a7.21,7.21,0,0,1,1.23-2.5,2.36,2.36,0,0,1,2.07-.91,2,2,0,0,1,1.46.59,4.3,4.3,0,0,1,1,1.49,4.43,4.43,0,0,1,.32,2.07,8.87,8.87,0,0,1-.71,2.89,8.74,8.74,0,0,1-1.75,2.75l4.41,2.79a13.58,13.58,0,0,0,2.27-4.34,18.67,18.67,0,0,0,.71-5.39A11.58,11.58,0,0,0,41,85.7a8.52,8.52,0,0,0-7.36-4.45,7.7,7.7,0,0,0-5,1.75,10.85,10.85,0,0,0-3.24,5.32l-1,3a7.73,7.73,0,0,1-1.2,2.3,2.54,2.54,0,0,1-2.08.87,2.44,2.44,0,0,1-1.69-.58,3.4,3.4,0,0,1-.94-1.59,8.21,8.21,0,0,1-.29-2.24,7.86,7.86,0,0,1,.85-3.4A14.43,14.43,0,0,1,21.59,83.07ZM51.1,109.59a3.51,3.51,0,0,0-2.79,1.3,4.31,4.31,0,0,0-1.1,2.85,4.2,4.2,0,0,0,1.1,2.82,3.62,3.62,0,0,0,5.51,0,4.16,4.16,0,0,0,1.11-2.82,4.27,4.27,0,0,0-1.11-2.85A3.41,3.41,0,0,0,51.1,109.59Zm-37.35,7.59H41.18v-7.26H13.75Zm21.5,9.66a14.5,14.5,0,0,0-7.62-2,14.77,14.77,0,0,0-7.49,1.88A14.08,14.08,0,0,0,15,131.77,13.17,13.17,0,0,0,13,138.71a13.37,13.37,0,0,0,1.82,7.23,10.84,10.84,0,0,0,3.51,3.58l-4.61-.05a6.34,6.34,0,0,1-4-1.07,7.53,7.53,0,0,1-2.53-3.11,11.1,11.1,0,0,1-.9-4.64,10.14,10.14,0,0,1,1.2-5.09,21.23,21.23,0,0,1,3-4l-5-4.22a29.39,29.39,0,0,0-2.66,3.4,18.21,18.21,0,0,0-2,4.25A17.91,17.91,0,0,0,0,140.72a18.18,18.18,0,0,0,1.85,8.4,14.68,14.68,0,0,0,4.89,5.64,12.22,12.22,0,0,0,6.94,2h27.5v-6.61l-3.13-.61a10.67,10.67,0,0,0,3.06-4.09,15.27,15.27,0,0,0,1.3-6.46,13.51,13.51,0,0,0-1.91-6.94A15,15,0,0,0,35.25,126.84Zm.51,17.87a8,8,0,0,1-2,3,8.22,8.22,0,0,1-3,1.82h-6a8,8,0,0,1-3.05-1.85,9,9,0,0,1-2-3,10.09,10.09,0,0,1-.71-3.86,8.52,8.52,0,0,1,4.35-7.56,9,9,0,0,1,4.47-1.13,8.8,8.8,0,0,1,4.48,1.13,8.14,8.14,0,0,1,3,3.12,8.89,8.89,0,0,1,1.1,4.44A10.62,10.62,0,0,1,35.76,144.71Zm.46,29.17,5-.54v-6.49H13.75v7.27H25.87a14,14,0,0,1,5.35.94,8.29,8.29,0,0,1,3.64,2.72,6.56,6.56,0,0,1,1.33,4,4.63,4.63,0,0,1-1.33,3.5,5.25,5.25,0,0,1-3.34,1.17H13.75v7.26H34.18A7.71,7.71,0,0,0,40,191.07a9.15,9.15,0,0,0,2.31-6.38A12.72,12.72,0,0,0,40.63,178,10.7,10.7,0,0,0,36.22,173.88Z"/></g></g></svg>