<svg xmlns="http://www.w3.org/2000/svg" xmlns:xlink="http://www.w3.org/1999/xlink" viewBox="0 0 58.66 193.61"><defs><style>.cls-1{fill:url(#Namnlös_övertoning_21);}</style><linearGradient id="Namnlös_övertoning_21" x1="8.61" y1="190.72" x2="49.02" y2="1.28" gradientUnits="userSpaceOnUse"><stop offset="0" stop-color="#fdc500"/><stop offset="1" stop-color="#cd5706"/></linearGradient></defs><title>aboutResurs 3</title><g id="Lager_2" data-name="Lager 2"><g id="Lager_1-2" data-name="Lager 1"><path class="cls-1" d="M6.23,15.67a4,4,0,0,1,.44-2,2.65,2.65,0,0,1,1.83-1,21.85,21.85,0,0,1,4.09-.28h8A9.49,9.49,0,0,0,27.13,10a8.57,8.57,0,0,0,1.57-1.8,8.45,8.45,0,0,0,1.61,1.89,8.46,8.46,0,0,0,2.86,1.61,13.46,13.46,0,0,0,4.53.66h6.93a22.3,22.3,0,0,1,4.18.28,2.74,2.74,0,0,1,1.83,1,3.75,3.75,0,0,1,.47,2v2.65h6.17V13.91c0-1.09,0-2.17-.1-3.24a7.18,7.18,0,0,0-.72-2.86,4.41,4.41,0,0,0-2.2-2,11.25,11.25,0,0,0-4.53-.72H39.4a11.85,11.85,0,0,1-3.55-.54A6.57,6.57,0,0,1,33,2.9,4.49,4.49,0,0,1,31.79,0h-6a4.17,4.17,0,0,1-1.23,2.9,7.08,7.08,0,0,1-2.86,1.66,11.62,11.62,0,0,1-3.53.54H8.06a13.07,13.07,0,0,0-4.91.72,4.3,4.3,0,0,0-2.33,2,7.53,7.53,0,0,0-.73,2.83Q0,12.22,0,13.91v4.41H6.23Zm39,42.3,6.86,2.89a25.94,25.94,0,0,0,2.68-5.75,24.12,24.12,0,0,0,1.16-7.72,23.21,23.21,0,0,0-1.76-9.12,21.19,21.19,0,0,0-4.94-7.18,22.1,22.1,0,0,0-7.55-4.65,26.67,26.67,0,0,0-9.48-1.64,24.17,24.17,0,0,0-8.84,1.6A22.32,22.32,0,0,0,16,31a21.7,21.7,0,0,0-5,7.24,24.74,24.74,0,0,0-1.92,9.6,21.9,21.9,0,0,0,.67,6.07,26.36,26.36,0,0,0,1.69,4.75,16.12,16.12,0,0,0,1.74,3l6.54-3.08A16.49,16.49,0,0,1,16.11,48a16.33,16.33,0,0,1,1.2-6.42,14.08,14.08,0,0,1,3.4-4.88A15.21,15.21,0,0,1,26,33.52a19.14,19.14,0,0,1,6.58-1.11,16.61,16.61,0,0,1,6.39,1.23A16.84,16.84,0,0,1,44.15,37a15.13,15.13,0,0,1,3.47,4.84,14.08,14.08,0,0,1,1.22,5.76,14.6,14.6,0,0,1-1.16,6A22.63,22.63,0,0,1,45.19,58ZM30.4,69.65a13.74,13.74,0,0,0-7.24-1.93,14.44,14.44,0,0,0-7.61,1.93,12.84,12.84,0,0,0-4.94,5.28,16.45,16.45,0,0,0-1.73,7.65,15.66,15.66,0,0,0,1.88,7.9,13.45,13.45,0,0,0,5.13,5.13,14.67,14.67,0,0,0,7.34,1.82,14.21,14.21,0,0,0,7.17-1.82,13.51,13.51,0,0,0,5.1-5.13,15.24,15.24,0,0,0,1.89-7.71A15.81,15.81,0,0,0,35.5,75,13.93,13.93,0,0,0,30.4,69.65Zm0,16.93a8,8,0,0,1-3,2.73,8.87,8.87,0,0,1-4.28,1,8.87,8.87,0,0,1-4.28-1,8,8,0,0,1-3-2.73,7.23,7.23,0,0,1-1.13-4.06,7,7,0,0,1,1.13-3.94,8.15,8.15,0,0,1,3-2.74,9,9,0,0,1,4.28-1,9,9,0,0,1,4.25,1,8,8,0,0,1,3,2.77,7.59,7.59,0,0,1,0,8Zm2.85,39.68a10,10,0,0,0,3-4.09,14.34,14.34,0,0,0,1.1-5.54,15.39,15.39,0,0,0-1.64-7.14,12.08,12.08,0,0,0-4.81-5,15.19,15.19,0,0,0-7.65-1.82,16.34,16.34,0,0,0-7.62,1.7,12.14,12.14,0,0,0-5,4.69,12.87,12.87,0,0,0-1.76,6.7,13.85,13.85,0,0,0,1.41,6.36,17.78,17.78,0,0,0,2.88,4.09H9.57v7H58.66v-7Zm-2.13-4.59a8.23,8.23,0,0,1-2,2.86,7.35,7.35,0,0,1-3,1.67h-5.6a8.42,8.42,0,0,1-3-1.73,7.59,7.59,0,0,1-2-2.77,9.62,9.62,0,0,1-.66-3.68,7.91,7.91,0,0,1,1.1-4.13,8.41,8.41,0,0,1,3.05-3,8.54,8.54,0,0,1,4.34-1.13,8.34,8.34,0,0,1,4.35,1.13,8.64,8.64,0,0,1,3,3,8,8,0,0,1,1.1,4.13A9.12,9.12,0,0,1,31.12,121.67ZM18.34,149.1l6.9,20.47a16,16,0,0,0,9-4.76,13,13,0,0,0,3.18-9,15.23,15.23,0,0,0-1.92-7.58,14.86,14.86,0,0,0-5.13-5.45,13.37,13.37,0,0,0-7.24-2,15.09,15.09,0,0,0-7.36,1.76,12.52,12.52,0,0,0-5,5.13,16.42,16.42,0,0,0-1.82,8,16.11,16.11,0,0,0,.78,4.82A19.6,19.6,0,0,0,11.77,165L17,161.76a12.62,12.62,0,0,1-1.51-2.83,9.09,9.09,0,0,1-.56-3.15,8.15,8.15,0,0,1,1-4.15A7.38,7.38,0,0,1,18.34,149.1Zm5.2-1.44a9.13,9.13,0,0,1,4.31,1,7.49,7.49,0,0,1,2.93,2.67,7.2,7.2,0,0,1,1.07,3.9,6.25,6.25,0,0,1-1.42,4.35,8.17,8.17,0,0,1-3,2.12l-5-14C22.77,147.69,23.14,147.66,23.54,147.66Zm27.57,30.28a3.82,3.82,0,0,1-.44,2,2.66,2.66,0,0,1-1.83,1,22.3,22.3,0,0,1-4.15.28h-8a9.14,9.14,0,0,0-6.54,2.49,19.67,19.67,0,0,0-1.57,1.66A10.6,10.6,0,0,0,27,183.63a9.39,9.39,0,0,0-2.73-1.7,11.05,11.05,0,0,0-4.28-.72H12.65a22.37,22.37,0,0,1-4.15-.28,2.68,2.68,0,0,1-1.83-1,3.82,3.82,0,0,1-.44-2v-2.58H0v4.34q0,1.63.09,3.24a7.76,7.76,0,0,0,.7,2.86,4.38,4.38,0,0,0,2.2,2,11.27,11.27,0,0,0,4.63.75h9.75a15.28,15.28,0,0,1,2.77.26,10.36,10.36,0,0,1,2.58.81,5.15,5.15,0,0,1,2,1.58,4.14,4.14,0,0,1,.82,2.39h6a4.1,4.1,0,0,1,.85-2.39,5.65,5.65,0,0,1,2-1.58,9.86,9.86,0,0,1,2.58-.81,15.55,15.55,0,0,1,2.74-.26H49.73a10.65,10.65,0,0,0,4.59-.78,4.53,4.53,0,0,0,2.17-2,7.51,7.51,0,0,0,.69-2.83c.07-1,.1-2.12.1-3.21v-4.34H51.11Z"/></g></g></svg>