<svg xmlns="http://www.w3.org/2000/svg" xmlns:xlink="http://www.w3.org/1999/xlink" viewBox="0 0 57.91 198.71"><defs><style>.cls-1{fill:url(#Namnlös_övertoning_128);}</style><linearGradient id="Namnlös_övertoning_128" x1="-14.41" y1="186.99" x2="70.68" y2="-19.2" gradientUnits="userSpaceOnUse"><stop offset="0" stop-color="#df99c3"/><stop offset="1" stop-color="#e93f8c"/></linearGradient></defs><title>aboutResurs 1</title><g id="Lager_2" data-name="Lager 2"><g id="Lager_1-2" data-name="Lager 1"><path class="cls-1" d="M56.32,23.44,1.31,0V8.35l12.48,5.14V32.72l-12.48,5v9.65L56.32,24ZM20.9,29.91V16.42L37.6,23.3ZM1.31,54.72v8.13h4A14.38,14.38,0,0,0,2.1,66.91,14.75,14.75,0,0,0,.51,74a16.16,16.16,0,0,0,2,8,15.5,15.5,0,0,0,5.77,5.88,17.33,17.33,0,0,0,9,2.21,17.47,17.47,0,0,0,8.64-2,14.24,14.24,0,0,0,5.55-5.41,14.78,14.78,0,0,0,1.92-7.44A18.85,18.85,0,0,0,32,67.71a13.49,13.49,0,0,0-3.33-4.93H57.91V54.72ZM25.69,77a9.53,9.53,0,0,1-3.48,3.37,9.87,9.87,0,0,1-4.94,1.23,10.2,10.2,0,0,1-5-1.23A9.19,9.19,0,0,1,8.74,77a9.36,9.36,0,0,1-1.26-4.83,10.93,10.93,0,0,1,.76-4.14,8.75,8.75,0,0,1,2.21-3.23,9.24,9.24,0,0,1,3.41-2h6.75A7.89,7.89,0,0,1,24,64.77a10,10,0,0,1,2.21,3.3A10.42,10.42,0,0,1,27,72.21,9.11,9.11,0,0,1,25.69,77ZM8.6,128.16a16.85,16.85,0,0,0,8.45,2.11,16.4,16.4,0,0,0,8.28-2.11,15.46,15.46,0,0,0,5.88-5.91,17.64,17.64,0,0,0,2.17-8.89,18.22,18.22,0,0,0-2.17-9A15.88,15.88,0,0,0,17,96,16.75,16.75,0,0,0,8.2,98.23a14.82,14.82,0,0,0-5.7,6.09,19,19,0,0,0-2,8.82,18,18,0,0,0,2.18,9.11A15.39,15.39,0,0,0,8.6,128.16Zm-.11-19.63A9.28,9.28,0,0,1,12,105.38a10.3,10.3,0,0,1,4.94-1.17,10.34,10.34,0,0,1,4.9,1.17,9.11,9.11,0,0,1,3.52,3.19,8.75,8.75,0,0,1,0,9.18,9.34,9.34,0,0,1-3.49,3.16,10.34,10.34,0,0,1-4.93,1.16A10.41,10.41,0,0,1,12,120.91a9.39,9.39,0,0,1-3.48-3.16,8.36,8.36,0,0,1-1.31-4.68A8.1,8.1,0,0,1,8.49,108.53Zm-1.65,52L1.31,161v7.33H32v-8.13H18.43a15.14,15.14,0,0,1-5.88-1.09,10.08,10.08,0,0,1-4.1-2.94A6.58,6.58,0,0,1,7,152a4.51,4.51,0,0,1,1.41-3.7A6.14,6.14,0,0,1,12.19,147H32V138.9H9.22a9.23,9.23,0,0,0-6.64,2.87A9.58,9.58,0,0,0,0,148.63a14.77,14.77,0,0,0,.87,5.22,12.28,12.28,0,0,0,2.47,4.07A11.16,11.16,0,0,0,6.84,160.5ZM32,177.3H25.69v5.29H1.31v8.13H25.69v8H32v-8H45.5v-8.13H32Z"/></g></g></svg>