<?xml version="1.0" encoding="utf-8"?>
<!-- Generator: Adobe Illustrator 24.0.0, SVG Export Plug-In . SVG Version: 6.00 Build 0)  -->
<svg version="1.1" id="Lager_1" xmlns="http://www.w3.org/2000/svg" xmlns:xlink="http://www.w3.org/1999/xlink" x="0px" y="0px"
	 viewBox="0 0 659 688" style="enable-background:new 0 0 659 688;" xml:space="preserve">
<style type="text/css">
	.st0{fill:url(#SVGID_2_);}
	.st1{clip-path:url(#SVGID_5_);}
	.st2{clip-path:url(#SVGID_9_);}
	.st3{opacity:0.38;}
	.st4{opacity:0.51;fill:url(#SVGID_12_);}
	.st5{opacity:0.58;fill:url(#SVGID_13_);}
</style>
<linearGradient id="SVGID_2_" gradientUnits="userSpaceOnUse" x1="486.3793" y1="425.2957" x2="486.3793" y2="292.9248" gradientTransform="matrix(1 0 0 1 -64.9106 -1.5917)">
	<stop  offset="0.1285" style="stop-color:#E49112"/>
	<stop  offset="0.5" style="stop-color:#E59C11"/>
	<stop  offset="0.9161" style="stop-color:#E6AA0F"/>
</linearGradient>
<rect x="320.4" y="291.3" class="st0" width="202.2" height="132.4"/>
<g>
	<defs>
		<path id="SVGID_4_" d="M653.4,257.6c1.9-70.9-4.7-140.5-80.9-205.2C530.8,18.7,482.3,3.3,435.1,4
			c-87.3,1.3-170.6,57.8-199.7,156.8c-1.4,4.7-2.6,9.7-3.5,14.8c0,0,0,0,0,0c-3.6,19.3-4,40.3-3.7,54v393.4
			c0,37.3,30.4,67.5,67.7,67.2h0c28-0.2,51.9-17.5,61.8-42c154.7-16.4,288-144.1,295.4-305.5C653.9,311.6,653.3,304.6,653.4,257.6z
			 M426.6,145.8c-1.8,0-3.7,0-5.7,0c-0.7,0-1.3,0-2,0c0.7,0,1.3,0,2,0C422.9,145.8,424.7,145.8,426.6,145.8z M299.7,148.5
			c-4.7,0.8-9.3,1.8-13.8,2.9C290.5,150.3,295.1,149.3,299.7,148.5c11.2-2.5,36.6-3,63.4-3C336.3,145.6,310.9,146.1,299.7,148.5z
			 M510.1,332.5l-0.1,3.3C506,419.3,442.6,489,362.6,504.2c0-0.2,0-0.4,0-0.7c0-106.5,0-220.4,0-291.2c0-0.8,0-1.6,0.1-2.4
			c2-36,27.4-63.1,66.8-64.1c0.7,0,1.5-0.1,2.2-0.1c0.7,0,1.4,0,2.2,0c0.1,0,0.1,0,0.2,0c39.7-0.8,75.3,31.8,76.3,73.2
			c0,0.8,0,1.6,0,2.4C510.3,247.1,510.4,307,510.1,332.5z"/>
	</defs>
	<clipPath id="SVGID_5_">
		<use xlink:href="#SVGID_4_"  style="overflow:visible;"/>
	</clipPath>
	<g class="st1">
		<g>
			<defs>
				<path id="SVGID_3_" d="M434.7,7.5h0.3c37.1,0,67.2,30.1,67.2,67.2s-30.1,67.2-67.2,67.2h-0.3V7.5z"/>
			</defs>
			<clipPath id="SVGID_6_">
				<use xlink:href="#SVGID_3_"  style="overflow:visible;"/>
			</clipPath>
			<g style="clip-path:url(#SVGID_6_);">
				<image style="overflow:visible;" width="270" height="135" xlink:href="D5ABD2CC.png"  transform="matrix(1 0 0 1 434 7)">
				</image>
			</g>
		</g>
		<image style="overflow:visible;" width="643" height="645" xlink:href="D5ABD2D7.png"  transform="matrix(1 0 0 1 8 4)">
		</image>
		<g>
			<defs>
				<path id="SVGID_1_" d="M362,619.9v0.3c0,36.8-29.9,66.7-66.7,66.7c-36.8,0-66.7-29.8-66.7-66.7l0-0.3H362z"/>
			</defs>
			<clipPath id="SVGID_7_">
				<use xlink:href="#SVGID_1_"  style="overflow:visible;"/>
			</clipPath>
			<g style="clip-path:url(#SVGID_7_);">
				<image style="overflow:visible;" width="135" height="268" xlink:href="D5ABD2D9.png"  transform="matrix(1 0 0 1 228 619)">
				</image>
			</g>
		</g>
	</g>
</g>
<g>
	<defs>
		<path id="SVGID_8_" d="M425.6,3.3c-48.7,0.1-126,1-147.3,4.4C124.6,32.3,6.9,166.4,7.4,326.8C7.1,468.5,99.1,590.7,228.2,633.8
			c0-47.6,0-103.3,0-159.6c-44.6-31.2-75.1-82.3-76.9-140.7c-0.1-2.2-0.1-4.3-0.1-6.6c0-1.5,0-5.7,0.1-6.8
			c1.3-58.3,32.5-112.6,80.6-144.5c20-13.3,42.9-22.7,67.9-27c8-1.8,80.2-2.6,126.6-3c38.9-0.3,70.4-31.9,70.6-70.8v0
			C497,35.3,465,3.2,425.6,3.3z"/>
	</defs>
	<clipPath id="SVGID_9_">
		<use xlink:href="#SVGID_8_"  style="overflow:visible;"/>
	</clipPath>
	<g class="st2">
		<image style="overflow:visible;" width="647" height="762" xlink:href="D5ABD2DA.png"  transform="matrix(1 0 0 1 7 3)">
		</image>
	</g>
	<g class="st2">
		<image style="overflow:visible;" width="135" height="233" xlink:href="D5ABD2DB.png"  transform="matrix(1 0 0 1 192 437)">
		</image>
	</g>
</g>
<g class="st3">
	<image style="overflow:visible;" width="60" height="144" xlink:href="D5ABD2DE.png"  transform="matrix(1 0 0 1 469 291)">
	</image>
</g>
<g>
	<defs>
		<path id="SVGID_10_" d="M580.1,63.1c-53-51.4-115.1-58.6-142.4-58.8l0,0c32.9,5.7,59.1,34.7,59.1,69.9c0,38.8-29.2,68.7-66,71l0,0
			c66.1,0,82.4,50.2,82.4,71.6c0,0,137.4,76.1,137.4,23S647.2,128.2,580.1,63.1z"/>
	</defs>
	<clipPath id="SVGID_11_">
		<use xlink:href="#SVGID_10_"  style="overflow:visible;"/>
	</clipPath>
	<g style="clip-path:url(#SVGID_11_);">
		<image style="overflow:visible;" width="195" height="216" xlink:href="D5ABD2DF.png"  transform="matrix(1 0 0 1 337 -33)">
		</image>
	</g>
</g>
<linearGradient id="SVGID_12_" gradientUnits="userSpaceOnUse" x1="356.4203" y1="549.4968" x2="534.2564" y2="549.4968">
	<stop  offset="0" style="stop-color:#603813"/>
	<stop  offset="4.363745e-02" style="stop-color:#7A5F13;stop-opacity:0.9564"/>
	<stop  offset="9.348923e-02" style="stop-color:#938312;stop-opacity:0.9065"/>
	<stop  offset="0.1496" style="stop-color:#AAA312;stop-opacity:0.8504"/>
	<stop  offset="0.2116" style="stop-color:#BCBF12;stop-opacity:0.7884"/>
	<stop  offset="0.2816" style="stop-color:#CBD511;stop-opacity:0.7184"/>
	<stop  offset="0.3634" style="stop-color:#D7E611;stop-opacity:0.6366"/>
	<stop  offset="0.4645" style="stop-color:#DFF111;stop-opacity:0.5355"/>
	<stop  offset="0.6063" style="stop-color:#E4F811;stop-opacity:0.3937"/>
	<stop  offset="1" style="stop-color:#E5FA11;stop-opacity:0"/>
</linearGradient>
<path class="st4" d="M356.4,646.6c3.6-8.1,6-14.9,6-32.3s0-109,0-109s8.2-1.8,21-6.4c12.7-4.6,38-16.5,46.6-22.7
	c8.6-6.2,22.1-15.7,28.1-23.4c6.1-7.7,92.9,107.4,73.2,123.4c-19.7,16-57.7,38.2-84.4,49.5C420.3,637,362.5,646.8,356.4,646.6z"/>
<linearGradient id="SVGID_13_" gradientUnits="userSpaceOnUse" x1="319.8623" y1="145.86" x2="328.6024" y2="217.0427">
	<stop  offset="0" style="stop-color:#603813"/>
	<stop  offset="8.142936e-02" style="stop-color:#7B5F13;stop-opacity:0.9186"/>
	<stop  offset="0.181" style="stop-color:#978812;stop-opacity:0.819"/>
	<stop  offset="0.2868" style="stop-color:#AFAB12;stop-opacity:0.7132"/>
	<stop  offset="0.3979" style="stop-color:#C3C812;stop-opacity:0.6021"/>
	<stop  offset="0.5163" style="stop-color:#D2DE11;stop-opacity:0.4837"/>
	<stop  offset="0.6454" style="stop-color:#DDEE11;stop-opacity:0.3546"/>
	<stop  offset="0.7928" style="stop-color:#E3F711;stop-opacity:0.2072"/>
	<stop  offset="1" style="stop-color:#E5FA11;stop-opacity:0"/>
</linearGradient>
<path class="st5" d="M231.9,175.5c7.6-7.8,33.7-18.3,44.4-21.3c10.7-3,20.8-5.7,34.6-7.2c15.2-1.7,77.8-1.7,77.8-1.7l32.9,0.5
	c0,0-43.4,3.4-54.5,42.8s-136.2,33.2-136.2,33.2s-2.8,17.3-2.7-1C228.3,201.3,231.9,175.5,231.9,175.5z"/>
</svg>
